<svg viewBox="0 0 159 45" fill="none" xmlns="http://www.w3.org/2000/svg">
<path fill-rule="evenodd" clip-rule="evenodd" d="M15.6341 30.4244C16.9101 30.2225 18.1277 29.8414 19.2605 29.3063C19.5806 30.2889 20.0121 31.2224 20.538 32.0922C22.0051 34.5184 24.2134 36.4491 26.8466 37.5672C25.4085 41.0501 21.98 43.5 17.9777 43.5C12.6796 43.5 8.38519 39.2056 8.38519 33.9074C8.38519 32.4786 8.69857 31.1215 9.2588 29.9038C10.5973 30.3487 12.0289 30.5904 13.5161 30.5904C14.237 30.5904 14.9436 30.5333 15.6341 30.4244V30.4244Z" fill="#FCC205"/>
<path fill-rule="evenodd" clip-rule="evenodd" d="M25.7645 13.1899C23.7913 14.2429 22.1089 15.7726 20.8712 17.6224C19.5712 19.5664 18.7613 21.8623 18.6191 24.3361C18.6046 24.5951 18.5966 24.8567 18.5966 25.1196C18.5966 26.3452 18.76 27.5323 19.0694 28.6624C17.9978 29.1789 16.8437 29.5507 15.6341 29.7512C14.945 29.8668 14.2371 29.9265 13.5162 29.9265C12.1365 29.9265 10.8072 29.7087 9.56159 29.3037C4.40423 27.6333 0.664795 22.7825 0.664795 17.0753C0.664795 9.9897 6.42925 4.22534 13.5162 4.22534C19.2486 4.22534 24.1153 7.99785 25.7645 13.1899Z" fill="#326BF6"/>
<path fill-rule="evenodd" clip-rule="evenodd" d="M44.9616 25.1195C44.9616 32.2051 39.1973 37.9707 32.1117 37.9707C30.3257 37.9707 28.6248 37.6042 27.079 36.9443C24.5879 35.8793 22.4978 34.0495 21.1076 31.7523C20.5897 30.8958 20.1687 29.9756 19.862 29.0049C19.8276 28.9 19.7944 28.7938 19.7651 28.6862C19.7319 28.576 19.7015 28.4645 19.6722 28.3529C19.4039 27.3198 19.2605 26.2363 19.2605 25.1195C19.2605 24.8792 19.2671 24.6402 19.2817 24.4038C19.4119 22.0282 20.19 19.8239 21.4422 17.9636C22.5921 16.2546 24.1404 14.8351 25.9543 13.8418C26.0539 13.7874 26.1535 13.7343 26.2557 13.6825C26.3553 13.6307 26.4549 13.5802 26.5572 13.5324C27.8864 12.8911 29.3445 12.4741 30.8794 12.3281C31.3787 13.8498 32.8143 14.9519 34.5019 14.9519C35.729 14.9519 36.823 14.369 37.5188 13.4647C41.9103 15.5083 44.9616 19.9647 44.9616 25.1195V25.1195Z" fill="#FF5A71"/>
<path fill-rule="evenodd" clip-rule="evenodd" d="M27.9661 3.45923C29.0756 3.45923 29.9752 4.33391 29.9752 5.41281C29.9752 6.49185 29.0756 7.36638 27.9661 7.36638C26.8566 7.36638 25.9571 6.49185 25.9571 5.41281C25.9571 4.33391 26.8566 3.45923 27.9661 3.45923V3.45923Z" fill="#326BF6"/>
<path fill-rule="evenodd" clip-rule="evenodd" d="M33.8752 1.5C34.6605 1.5 35.2971 2.11906 35.2971 2.88273C35.2971 3.64639 34.6605 4.26544 33.8752 4.26544C33.0899 4.26544 32.4532 3.64639 32.4532 2.88273C32.4532 2.11906 33.0899 1.5 33.8752 1.5V1.5Z" fill="#FCC205"/>
<path fill-rule="evenodd" clip-rule="evenodd" d="M3.08122 28.7271C4.60018 28.7271 5.83152 29.9585 5.83152 31.4775C5.83152 32.9965 4.60018 34.2278 3.08122 34.2278C1.56226 34.2278 0.33078 32.9965 0.33078 31.4775C0.33078 29.9585 1.56226 28.7271 3.08122 28.7271Z" fill="#78E69E"/>
<path fill-rule="evenodd" clip-rule="evenodd" d="M37.7818 11.1409C37.7818 11.6973 37.6423 12.2218 37.3979 12.6813C37.345 12.7795 37.2877 12.8738 37.2266 12.9654C37.1617 13.0624 37.0927 13.154 37.0183 13.243C36.4168 13.9627 35.511 14.4208 34.502 14.4208C33.0943 14.4208 31.8926 13.5311 31.4278 12.2869C31.3868 12.1807 31.3522 12.0705 31.3244 11.9602C31.2963 11.8527 31.2738 11.7438 31.258 11.6323C31.2327 11.4716 31.2208 11.3083 31.2208 11.1409C31.2208 9.33237 32.6921 7.86108 34.502 7.86108C36.3105 7.86108 37.7818 9.33237 37.7818 11.1409Z" fill="#794FEC"/>
<path fill-rule="evenodd" clip-rule="evenodd" d="M30.9552 24.7583C30.9552 25.4794 30.6033 26.0995 29.9832 26.4686L26.0897 28.7871L21.1076 31.7523L20.8181 31.9249L20.538 32.0922L18.6444 33.2196C18.0123 33.5954 17.2807 33.6033 16.642 33.2395C16.0019 32.8756 15.6341 32.2436 15.6341 31.5079V18.0087C15.6341 17.2731 16.0019 16.641 16.642 16.2771C17.282 15.9133 18.0123 15.9199 18.6444 16.2971L20.8713 17.6223L21.1528 17.7909L21.4421 17.9636L25.8733 20.6007L26.1708 20.7773L26.463 20.9513L29.9832 23.0467C30.6033 23.4158 30.9552 24.0359 30.9552 24.7583V24.7583Z" fill="white"/>
<path d="M52.3508 22.6618V27.6282H53.6999C55.2114 27.6282 55.9672 26.8021 55.9672 25.1493C55.9672 23.491 55.2114 22.6618 53.6999 22.6618H52.3508ZM51.5226 22.0007H53.7281C54.2805 22.0007 54.7584 22.0771 55.1624 22.2297C55.5665 22.3821 55.8869 22.6024 56.1234 22.8906C56.3599 23.179 56.5342 23.5094 56.6465 23.8823C56.7581 24.2552 56.8143 24.6777 56.8143 25.1493C56.8143 25.6184 56.7599 26.037 56.6511 26.4059C56.5423 26.7746 56.3727 27.1044 56.1424 27.3954C55.912 27.6863 55.5932 27.9096 55.1864 28.0647C54.7792 28.2204 54.2931 28.2981 53.7281 28.2981H51.5226V22.0007ZM60.6245 22.9077H60.5962L59.5126 25.7595H61.7086L60.6245 22.9077ZM58.5469 28.2981H57.6994L60.2316 22.0007H61.0316L63.5547 28.2981H62.6646L61.9359 26.3572H59.2756L58.5469 28.2981ZM65.6513 25.1069H67.1895C67.6883 25.1069 68.0654 25.0038 68.3209 24.7976C68.5766 24.5915 68.7042 24.2976 68.7042 23.9162C68.7042 23.5095 68.5734 23.1986 68.3115 22.9839C68.0494 22.7694 67.6883 22.6618 67.2276 22.6618H65.6513V25.1069ZM67.327 22.0009C67.6993 22.0009 68.0322 22.0522 68.3256 22.1553C68.6191 22.2587 68.8526 22.397 69.0261 22.5708C69.1995 22.7444 69.3307 22.9401 69.4189 23.1575C69.5074 23.3752 69.5514 23.6098 69.5514 23.8611C69.5514 24.333 69.4254 24.7131 69.1729 25.001C68.9203 25.2892 68.6098 25.494 68.2406 25.6156L69.6793 28.2979H68.7327L67.4263 25.7681H65.6513V28.2979H64.8231V22.0009H67.327ZM72.0839 28.2979H71.3313V22.0009H72.1219L74.4978 27.0434H74.5262L76.8881 22.0009H77.6881V28.2979H76.94V23.6069H76.8881L74.8812 27.8148H74.1426L72.1219 23.6069H72.0839V28.2979ZM80.2486 24.7086V25.6537C80.2486 26.004 80.2993 26.316 80.4001 26.5901C80.5011 26.8643 80.6408 27.0853 80.8193 27.2534C80.9971 27.4216 81.2023 27.5479 81.4345 27.6325C81.6664 27.7172 81.9245 27.7598 82.2085 27.7598C82.4892 27.7598 82.7481 27.7172 82.9846 27.6325C83.2211 27.5479 83.4304 27.4216 83.6116 27.2534C83.7932 27.0853 83.9328 26.8643 84.0307 26.5901C84.1284 26.316 84.1771 26.004 84.1771 25.6537V24.7086C84.1771 24.0137 83.9951 23.4783 83.6307 23.1027C83.2664 22.7268 82.792 22.539 82.2085 22.539C81.6309 22.539 81.1599 22.7255 80.7955 23.0982C80.4309 23.4713 80.2486 24.0079 80.2486 24.7086ZM79.4298 25.6537V24.7086C79.4298 23.8271 79.6822 23.1336 80.1873 22.628C80.6921 22.1222 81.3684 21.8694 82.2154 21.8694C83.0626 21.8694 83.7378 22.1208 84.2411 22.6237C84.7445 23.1266 84.9962 23.8216 84.9962 24.7086V25.6537C84.9962 26.5352 84.7427 27.218 84.2367 27.7025C83.7301 28.187 83.0509 28.4294 82.199 28.4294C81.3438 28.4294 80.6684 28.187 80.1733 27.7025C79.6775 27.218 79.4298 26.5352 79.4298 25.6537ZM88.6029 28.2979H87.8833L85.9336 22.0009H86.8989L88.2479 27.1325H88.286L89.6962 22.0009H90.5721L91.9824 27.1325H92.0202L93.3694 22.0009H94.3351L92.3848 28.2979H91.6558L90.1508 23.217H90.108L88.6029 28.2979ZM99.7261 27.6283V28.2981H95.5467V22.0009H99.7261V22.6703H96.3751V24.7425H99.5365V25.4123H96.3751V27.6283H99.7261ZM108.819 28.2979H107.47L105.662 22.1831H107.148L108.212 26.4927H108.289L109.533 22.1831H110.74L112.009 26.4927H112.085L113.139 22.1831H114.617L112.804 28.2979H111.464L110.173 24.251H110.097L108.819 28.2979ZM120.382 28.2979H115.857V22.1831H120.382V23.2763H117.286V24.7043H120.207V25.7172H117.286V27.2046H120.382V28.2979ZM124.591 27.3191C125.003 27.3191 125.318 27.2441 125.534 27.0944C125.75 26.9447 125.858 26.7257 125.858 26.4375C125.858 26.1552 125.747 25.9418 125.525 25.7979C125.301 25.6537 124.98 25.5816 124.557 25.5816H123.317V27.3191H124.591ZM123.317 24.717H124.391C124.779 24.717 125.075 24.65 125.279 24.5159C125.482 24.3818 125.584 24.1903 125.584 23.9416C125.584 23.6958 125.491 23.5045 125.304 23.3675C125.119 23.2304 124.853 23.1619 124.509 23.1619H123.317V24.717ZM121.888 28.2979V22.183H124.874C125.205 22.183 125.502 22.2184 125.763 22.2891C126.026 22.3596 126.248 22.4606 126.429 22.5918C126.61 22.7233 126.749 22.883 126.845 23.0708C126.942 23.2586 126.99 23.4713 126.99 23.7087C126.99 23.8696 126.958 24.0244 126.895 24.1726C126.832 24.3207 126.746 24.4531 126.634 24.5688C126.524 24.6847 126.392 24.7821 126.242 24.8611C126.091 24.9403 125.928 24.9913 125.754 25.0137V25.09C125.982 25.1041 126.19 25.1515 126.382 25.2319C126.572 25.3125 126.737 25.417 126.875 25.5456C127.014 25.6742 127.123 25.8239 127.2 25.9947C127.277 26.1659 127.316 26.3501 127.316 26.5477C127.316 26.8161 127.262 27.0584 127.153 27.2747C127.044 27.4907 126.887 27.6744 126.682 27.8253C126.477 27.9766 126.228 28.093 125.937 28.175C125.644 28.257 125.316 28.2979 124.954 28.2979H121.888ZM128.608 22.183H130.038V28.2978H128.608V22.183ZM131.694 28.2979V22.1831H132.888L136.03 25.9927H136.116V22.1831H137.483V28.2979H136.3L133.147 24.4713H133.063V28.2979H131.694ZM140.919 25.8529H142.709L141.862 23.4542H141.776L140.919 25.8529ZM143.012 26.8401H140.613L140.086 28.2979H138.652L141.023 22.183H142.704L145.075 28.2979H143.527L143.012 26.8401ZM147.669 25.0984H148.923C149.286 25.0984 149.568 25.0167 149.766 24.8526C149.965 24.689 150.064 24.4586 150.064 24.1619C150.064 24.0178 150.037 23.8873 149.984 23.7701C149.93 23.6527 149.853 23.5533 149.753 23.4713C149.655 23.3895 149.533 23.3266 149.39 23.2825C149.246 23.239 149.086 23.217 148.91 23.217H147.669V25.0984ZM147.669 28.2979H146.239V22.1831H149.108C149.483 22.1831 149.821 22.2281 150.12 22.3188C150.42 22.409 150.674 22.539 150.884 22.7084C151.092 22.878 151.25 23.0834 151.364 23.3252C151.475 23.5665 151.531 23.84 151.531 24.1451C151.531 24.34 151.504 24.5272 151.448 24.7063C151.394 24.886 151.312 25.0512 151.207 25.2023C151.101 25.3535 150.971 25.487 150.817 25.6026C150.662 25.7187 150.487 25.8119 150.291 25.8826L151.73 28.2979H150.111L148.837 26.0817H147.669V28.2979ZM154.863 28.2979V26.0477L152.483 22.1831H154.03L155.536 24.7425H155.621L157.121 22.1831H158.669L156.294 26.0477V28.2979H154.863Z" fill="#AAAFB2"/>
</svg>
  