<svg viewBox="0 0 45 45" fill="none" xmlns="http://www.w3.org/2000/svg">
<path fill-rule="evenodd" clip-rule="evenodd" d="M15.4879 30.4244C16.7639 30.2225 17.9815 29.8414 19.1143 29.3063C19.4344 30.2889 19.8659 31.2224 20.3918 32.0922C21.8589 34.5184 24.0672 36.4491 26.7004 37.5672C25.2623 41.0501 21.8338 43.5 17.8315 43.5C12.5334 43.5 8.23901 39.2056 8.23901 33.9074C8.23901 32.4786 8.55239 31.1215 9.11262 29.9038C10.4511 30.3487 11.8827 30.5904 13.3699 30.5904C14.0908 30.5904 14.7974 30.5333 15.4879 30.4244V30.4244Z" fill="#FCC205"/>
<path fill-rule="evenodd" clip-rule="evenodd" d="M25.6183 13.1899C23.6451 14.2429 21.9627 15.7726 20.725 17.6224C19.425 19.5664 18.6151 21.8623 18.4729 24.3361C18.4584 24.5951 18.4504 24.8567 18.4504 25.1196C18.4504 26.3452 18.6138 27.5323 18.9232 28.6624C17.8516 29.1789 16.6975 29.5507 15.4879 29.7512C14.7988 29.8668 14.0909 29.9265 13.37 29.9265C11.9903 29.9265 10.661 29.7087 9.41541 29.3037C4.25805 27.6333 0.518616 22.7825 0.518616 17.0753C0.518616 9.9897 6.28307 4.22534 13.37 4.22534C19.1024 4.22534 23.9691 7.99785 25.6183 13.1899Z" fill="#326BF6"/>
<path fill-rule="evenodd" clip-rule="evenodd" d="M44.8154 25.1195C44.8154 32.2051 39.0511 37.9707 31.9655 37.9707C30.1795 37.9707 28.4786 37.6042 26.9328 36.9443C24.4417 35.8793 22.3516 34.0495 20.9614 31.7523C20.4435 30.8958 20.0225 29.9756 19.7158 29.0049C19.6814 28.9 19.6482 28.7938 19.6189 28.6862C19.5857 28.576 19.5553 28.4645 19.526 28.3529C19.2577 27.3198 19.1143 26.2363 19.1143 25.1195C19.1143 24.8792 19.1209 24.6402 19.1355 24.4038C19.2657 22.0282 20.0438 19.8239 21.296 17.9636C22.4459 16.2546 23.9942 14.8351 25.8081 13.8418C25.9077 13.7874 26.0073 13.7343 26.1095 13.6825C26.2091 13.6307 26.3087 13.5802 26.411 13.5324C27.7402 12.8911 29.1983 12.4741 30.7332 12.3281C31.2325 13.8498 32.6681 14.9519 34.3557 14.9519C35.5828 14.9519 36.6768 14.369 37.3726 13.4647C41.7641 15.5083 44.8154 19.9647 44.8154 25.1195V25.1195Z" fill="#FF5A71"/>
<path fill-rule="evenodd" clip-rule="evenodd" d="M27.8199 3.45923C28.9294 3.45923 29.829 4.33391 29.829 5.41281C29.829 6.49185 28.9294 7.36638 27.8199 7.36638C26.7104 7.36638 25.8109 6.49185 25.8109 5.41281C25.8109 4.33391 26.7104 3.45923 27.8199 3.45923V3.45923Z" fill="#326BF6"/>
<path fill-rule="evenodd" clip-rule="evenodd" d="M33.729 1.5C34.5143 1.5 35.1509 2.11906 35.1509 2.88273C35.1509 3.64639 34.5143 4.26544 33.729 4.26544C32.9437 4.26544 32.307 3.64639 32.307 2.88273C32.307 2.11906 32.9437 1.5 33.729 1.5V1.5Z" fill="#FCC205"/>
<path fill-rule="evenodd" clip-rule="evenodd" d="M2.93504 28.7271C4.454 28.7271 5.68534 29.9585 5.68534 31.4775C5.68534 32.9965 4.454 34.2278 2.93504 34.2278C1.41608 34.2278 0.184601 32.9965 0.184601 31.4775C0.184601 29.9585 1.41608 28.7271 2.93504 28.7271Z" fill="#78E69E"/>
<path fill-rule="evenodd" clip-rule="evenodd" d="M37.6356 11.1409C37.6356 11.6973 37.4961 12.2218 37.2517 12.6813C37.1988 12.7795 37.1415 12.8738 37.0804 12.9654C37.0155 13.0624 36.9465 13.154 36.8721 13.243C36.2706 13.9627 35.3648 14.4208 34.3558 14.4208C32.9481 14.4208 31.7464 13.5311 31.2816 12.2869C31.2406 12.1807 31.206 12.0705 31.1782 11.9602C31.1501 11.8527 31.1276 11.7438 31.1118 11.6323C31.0865 11.4716 31.0746 11.3083 31.0746 11.1409C31.0746 9.33237 32.5459 7.86108 34.3558 7.86108C36.1643 7.86108 37.6356 9.33237 37.6356 11.1409Z" fill="#794FEC"/>
<path fill-rule="evenodd" clip-rule="evenodd" d="M30.809 24.7583C30.809 25.4794 30.4571 26.0995 29.837 26.4686L25.9435 28.7871L20.9614 31.7523L20.6719 31.9249L20.3918 32.0922L18.4982 33.2196C17.8661 33.5954 17.1345 33.6033 16.4958 33.2395C15.8557 32.8756 15.4879 32.2436 15.4879 31.5079V18.0087C15.4879 17.2731 15.8557 16.641 16.4958 16.2771C17.1358 15.9133 17.8661 15.9199 18.4982 16.2971L20.7251 17.6223L21.0066 17.7909L21.2959 17.9636L25.7271 20.6007L26.0246 20.7773L26.3168 20.9513L29.837 23.0467C30.4571 23.4158 30.809 24.0359 30.809 24.7583V24.7583Z" fill="white"/>
</svg>
